<svg xmlns="http://www.w3.org/2000/svg" viewBox="0 0 48 48"><path d="M24 7.43c8.076 0 15.637 3.858 20.225 10.32.374.527.369 1.208.04 1.72 1.637.653 2.785 2.148 2.785 3.884 0 1.022-.398 1.96-1.058 2.692.66.732 1.058 1.671 1.058 2.693 0 1.512-.871 2.841-2.177 3.59l-.19.103v2.725a5.417 5.417 0 0 1-5.19 5.409l-.217.004H8.724a5.416 5.416 0 0 1-5.403-5.195l-.004-.218v-2.725C1.907 31.706.95 30.323.95 28.739c0-1.022.398-1.96 1.058-2.693-.66-.732-1.058-1.67-1.058-2.692 0-1.736 1.148-3.231 2.784-3.883a1.539 1.539 0 0 1 .041-1.72C8.362 11.287 15.923 7.43 24 7.43zM12.318 32.97H6.396v2.186c0 1.234.96 2.246 2.169 2.328l.159.006h30.552c1.23 0 2.24-.961 2.322-2.174l.006-.16V32.97H20.609l-3.057 3.056a1.536 1.536 0 0 1-2.06.106l-.117-.106-3.057-3.056zm9.32-5.385h-10.35l5.175 5.175 5.176-5.175zm20.792 0H25.994l-2.306 2.306H42.43c.82 0 1.54-.54 1.54-1.153 0-.578-.637-1.09-1.396-1.148l-.144-.005zm-35.497 0H5.57c-.82 0-1.54.539-1.54 1.153 0 .578.637 1.089 1.396 1.147l.144.006h3.669l-2.306-2.306zM42.43 22.2H5.57c-.82 0-1.54.539-1.54 1.153 0 .578.637 1.089 1.396 1.147l.144.006h36.86c.82 0 1.54-.539 1.54-1.153 0-.578-.637-1.09-1.396-1.147l-.144-.006zM24 10.509c-6.766 0-13.112 3.081-17.162 8.285l-.25.328h34.824C37.376 13.72 30.907 10.509 24 10.509zm0 4.22c.304 0 .602.123.817.337.214.216.337.513.337.818 0 .303-.123.6-.337.816a1.163 1.163 0 0 1-.817.339c-.304 0-.601-.123-.817-.339a1.163 1.163 0 0 1-.338-.816c0-.305.123-.602.338-.818.216-.214.513-.337.817-.337zm-10.178 0c.305 0 .602.123.818.337.214.216.337.513.337.818 0 .303-.123.6-.337.816a1.162 1.162 0 0 1-.818.339c-.303 0-.6-.123-.816-.339a1.163 1.163 0 0 1-.34-.816c0-.305.124-.602.34-.818.215-.214.513-.337.816-.337zm20.355 0c.304 0 .602.123.818.337.214.216.337.513.337.818 0 .303-.123.6-.337.816a1.163 1.163 0 0 1-.818.339 1.159 1.159 0 0 1-1.155-1.155 1.16 1.16 0 0 1 1.155-1.155zm-13.57-3.517c.305 0 .603.123.817.337.215.216.338.513.338.818a1.161 1.161 0 0 1-1.154 1.155 1.156 1.156 0 0 1-.817-1.973c.215-.214.512-.337.817-.337zm6.785 0c.304 0 .602.123.817.337.214.216.34.513.34.818a1.163 1.163 0 0 1-1.157 1.155c-.304 0-.601-.123-.816-.339a1.162 1.162 0 0 1-.34-.816c0-.305.124-.602.34-.818.215-.214.512-.337.816-.337z"/></svg>