<svg xmlns="http://www.w3.org/2000/svg" viewBox="0 0 48 48"><path d="M39.963 9.552a1.624 1.624 0 0 0-1.233-.566H22.068l-.466-6.528A1.623 1.623 0 0 0 19.982.95H9.27a1.623 1.623 0 0 0 0 3.247h9.201l.342 4.789h-6.865a1.623 1.623 0 0 0-1.605 1.87L15.7 45.672a1.623 1.623 0 0 0 1.604 1.376h16.07c.801 0 1.483-.584 1.604-1.376l5.357-34.818a1.624 1.624 0 0 0-.372-1.303zm-3.124 2.68-1.973 12.823h-11.65L22.3 12.232h14.539zm-17.794 0 .916 12.823h-4.148L13.84 12.232h5.205zm12.937 31.571H18.697l-2.385-15.501h3.881l.849 11.883a1.623 1.623 0 1 0 3.238-.23l-.832-11.653h10.919l-2.385 15.501z"/></svg>