<svg xmlns="http://www.w3.org/2000/svg" viewBox="0 0 48 48"><path d="M43.225 4.828a1.56 1.56 0 0 0-.971-.694l-3.967-.92.026-1.145A1.561 1.561 0 0 0 36.788.474L31.641.358h-.036a1.56 1.56 0 0 0-1.559 1.524l-.081 3.597-.367-.106a1.556 1.556 0 0 0-.85-.002l.08-3.512A1.56 1.56 0 0 0 27.303.264L22.156.147a1.557 1.557 0 0 0-1.595 1.526l-.29 12.814-.5-7.322a1.56 1.56 0 0 0-1.663-1.45l-2.963.203V4.492a1.56 1.56 0 0 0-1.56-1.56H8.437a1.56 1.56 0 0 0-1.56 1.56v11.02h-.779a1.56 1.56 0 0 0-1.541 1.802L9.003 45.71a1.56 1.56 0 0 0 1.541 1.319H37.22a1.56 1.56 0 0 0 1.542-1.319l4.446-28.397a1.561 1.561 0 0 0-1.542-1.802h-.448l2.204-9.506a1.559 1.559 0 0 0-.196-1.178zm-8.488 2.026-1.671-.482.064-2.86 2.028.046-.42 3.296zm-4.422 1.973 3.468.999-2.175 9.382a13.706 13.706 0 0 1-4.135 1.876l2.842-12.257zm-7.081 12.718.411-18.242 2.028.046-.292 12.943-1.218 5.253h-.93zm-6.47-12.61.759 11.082a13.747 13.747 0 0 1-2.126-1.356l-.656-9.588 2.023-.138zm-4.74 6.577H9.998v-9.46h2.028v.421a1.56 1.56 0 0 0-.504 1.257l.504 7.782zm23.86 28.398H11.88L7.922 18.633h2.966a16.882 16.882 0 0 0 12.994 6.037 16.88 16.88 0 0 0 12.993-6.037h2.967L35.885 43.91zm.046-28.398 2.124-9.148 1.975.457-2.015 8.691H35.93z"/></svg>