<svg xmlns="http://www.w3.org/2000/svg" viewBox="0 0 48 48"><path d="M42.834 8.752C37.804 3.72 31.114.95 24 .95c-7.115 0-13.803 2.771-18.834 7.802a1.535 1.535 0 0 0-.289 1.769l17.75 35.678a1.535 1.535 0 0 0 2.747 0l17.75-35.678a1.535 1.535 0 0 0-.29-1.77zM24 4.019c5.928 0 11.522 2.175 15.872 6.146l-1.188 2.387C34.63 8.952 29.467 6.984 24 6.984a21.988 21.988 0 0 0-14.684 5.568l-1.188-2.387C12.478 6.194 18.072 4.019 24 4.019zm-8.97 19.795a1.536 1.536 0 0 0-.128-.032l-2.198-4.42a3.503 3.503 0 0 1 1.702-2.039 3.507 3.507 0 0 1 2.69-.259 3.505 3.505 0 0 1 2.083 1.718 3.51 3.51 0 0 1 .258 2.69 3.505 3.505 0 0 1-1.717 2.083 3.507 3.507 0 0 1-2.69.26zM24 42.07l-7.485-15.046a6.58 6.58 0 0 0 2.645-.759 6.553 6.553 0 0 0 3.212-3.896 6.556 6.556 0 0 0-.483-5.028 6.554 6.554 0 0 0-3.897-3.212 6.557 6.557 0 0 0-5.027.484 6.59 6.59 0 0 0-1.881 1.493l-.344-.691A18.953 18.953 0 0 1 24 10.054c4.988 0 9.684 1.902 13.26 5.36l-4.966 9.983a5.968 5.968 0 0 0-5.129-2.924 5.972 5.972 0 0 0-5.965 5.965 5.972 5.972 0 0 0 6.633 5.927L24 42.07zm3.165-10.735a2.9 2.9 0 0 1-2.896-2.897 2.9 2.9 0 0 1 2.896-2.896 2.9 2.9 0 0 1 2.897 2.896 2.9 2.9 0 0 1-2.897 2.897z"/><path d="M30.511 18.762a1.53 1.53 0 0 0 2.17 0c.6-.6.6-1.57 0-2.17L30.15 14.06a1.535 1.535 0 0 0-2.17 2.17l2.532 2.532z"/></svg>