<svg xmlns="http://www.w3.org/2000/svg" viewBox="0 0 48 48"><path d="M41.963 38.007c.662-2.97 2.341-11.941 2.341-11.941 3.67-2.905 4.629-7.933 2.237-11.047-1.03-1.341-2.59-2.21-4.396-2.446-2.224-.29-4.623.386-6.619 1.855-1.297-4.89-5.753-8.503-11.037-8.503-5.244 0-9.671 3.56-11.006 8.393-2.015-1.525-4.461-2.23-6.725-1.935-1.805.235-3.367 1.104-4.397 2.447C1.108 16.462.667 18.77 1.18 21c.465 2.025 1.677 3.647 3.47 5.065 0 0 1.686 8.971 2.349 11.94.508 2.28 2.845 4.07 5.18 4.07h24.604c2.334 0 4.672-1.79 5.18-4.07zM24.489 9.008c4.488 0 8.158 3.573 8.329 8.03-2.083-.736-4.748-.25-6.935 1.435a9.537 9.537 0 0 0-1.152 1.047c-.67-.53-1.511-1.167-1.958-1.391-3.017-1.521-5.134-1.674-6.605-1.257.255-4.38 3.889-7.864 8.321-7.864zM8.245 24.938c-2.808-1.407-3.758-3.312-4.06-4.627-.305-1.326-.067-2.707.622-3.604.676-.882 1.651-1.175 2.35-1.266 1.487-.195 3.134.307 4.52 1.375 1.009.777 1.763 1.761 2.182 2.847a1.542 1.542 0 0 0 2.53.532c1.098-1.1 3.86.114 4.992.685.228.123.987.698 1.7 1.268-.343.933-.458 1.885-.329 2.79h-3.655L7.969 19.364a.925.925 0 0 0-.829 1.654l7.826 3.92H8.245zm30.714 12.374c-.236.883-1.266 1.68-2.176 1.68H12.179c-.911 0-1.94-.797-2.176-1.68l-1.94-9.291h32.835l-1.94 9.291zm-5.197-12.375 5.536-2.99a.925.925 0 0 0-.88-1.627l-8.549 4.618h-3.942c-.464-1.143.269-2.814 1.838-4.023 1.646-1.268 3.776-1.506 4.747-.53a1.541 1.541 0 0 0 2.53-.532c.421-1.087 1.176-2.072 2.183-2.848 1.386-1.068 3.034-1.57 4.52-1.375.7.091 1.674.385 2.35 1.267 1.382 1.799.543 4.774-1.87 6.632-1.007.776-2.15 1.28-3.305 1.409h-5.158z"/><path d="M24.489 14.175c.51 0 .925-.414.925-.925v-1.542a.925.925 0 0 0-1.85 0v1.542c0 .511.414.925.925.925zm-4.35.822a.925.925 0 1 0 1.603-.924l-.77-1.336a.925.925 0 1 0-1.603.924l.77 1.336z"/></svg>